P3
2 2 
# ppm format fills in row by row
255
255 0 0
0 255 0 
0 0 255
255 0 0 
